<svg id="Layer_1" data-name="Layer 1" xmlns="http://www.w3.org/2000/svg" viewBox="0 0 1086.5 496"><path d="M470.69,90,393.11,336.12C396.34,403.66,330.5,402,330.5,402H158c-52.91,0-55.56-48.86-53.48-73.77h0L33.63,77A174.75,174.75,0,0,0,2,177.5v141A175.49,175.49,0,0,0,177.5,494h141A175.49,175.49,0,0,0,494,318.5v-141A174.71,174.71,0,0,0,470.69,90ZM331.82,342H287v28.66h44.82Z" fill="#76c2ac" stroke="#000" stroke-miterlimit="10" stroke-width="4"/><path d="M287,342v28.66h44.82V342Z" fill="none" stroke="#000" stroke-miterlimit="10" stroke-width="4"/><path d="M314,164.5c0,26.55-9.65,50.21-24.69,65.5a63,63,0,0,1-15.82,11.86,51.91,51.91,0,0,1-48.45.28A63.24,63.24,0,0,1,208.69,230c-15-15.29-24.69-38.95-24.69-65.5,0-46.12,29.1-83.5,65-83.5S314,118.38,314,164.5Z" fill="none" stroke="#000" stroke-miterlimit="10" stroke-width="4"/><rect x="287" y="342" width="44.82" height="28.66" fill="none" stroke="#000" stroke-miterlimit="10" stroke-width="4"/><path d="M318.5,2h-141A175.3,175.3,0,0,0,33.63,77l70.89,251.26a119.73,119.73,0,0,1,2-14.22c15.71-36.25,52-58.2,93.56-67.69L239,299h20.1l42-52.79c44.75,10,81.26,33.42,88.9,67.79a131.17,131.17,0,0,1,3.11,22.12L470.69,90A175.42,175.42,0,0,0,318.5,2ZM289.31,230a63,63,0,0,1-15.82,11.86,51.91,51.91,0,0,1-48.45.28A63.24,63.24,0,0,1,208.69,230c-15-15.29-24.69-38.95-24.69-65.5,0-46.12,29.1-83.5,65-83.5s65,37.38,65,83.5C314,191.05,304.35,214.71,289.31,230Z" fill="#22807c" stroke="#000" stroke-miterlimit="10" stroke-width="4"/><polygon points="267.74 392 232 392 234.73 373.64 244.5 308.02 254.78 308.02 264.81 373.03 267.74 392" fill="none" stroke="#000" stroke-miterlimit="10" stroke-width="4"/><path d="M393.11,336.12A131.17,131.17,0,0,0,390,314c-7.64-34.37-44.15-57.8-88.9-67.79L259.1,299H239l-38.94-52.69c-41.58,9.49-77.85,31.44-93.56,67.69a119.73,119.73,0,0,0-2,14.22h0C102.44,353.14,105.09,402,158,402H330.5S396.34,403.66,393.11,336.12ZM287,342h44.82v28.66H287Zm-55,50,2.73-18.36L244.5,308h10.28l10,65,2.93,19Z" fill="none" stroke="#000" stroke-miterlimit="10" stroke-width="4"/><polygon points="248 263.38 232 282.58 240 295.54 258 296 267.74 279.69 248 263.38" fill="#76c2ac" stroke="#000" stroke-miterlimit="10" stroke-width="4"/><text transform="translate(546.38 336.82)" font-size="292" font-family="MyriadPro-Regular, Myriad Pro">APP</text></svg>