<svg xmlns="http://www.w3.org/2000/svg" viewBox="0 0 572 522.28"><g id="Layer_1" data-name="Layer 1"><path d="M24.06,521.78A23.59,23.59,0,0,1,.5,498.22V23.56A23.21,23.21,0,0,1,20,.77,24.14,24.14,0,0,1,23.56.5H322.44A23.08,23.08,0,0,1,345.5,23.56V63a23.08,23.08,0,0,1-23.06,23.06H127.5V436.22H321.94a23.59,23.59,0,0,1,23.56,23.56v38.44a23.59,23.59,0,0,1-23.56,23.56Z" fill="#fff"/><path d="M322.44,1A22.59,22.59,0,0,1,345,23.56V63a22.59,22.59,0,0,1-22.56,22.56H127V436.72H321.94A23.08,23.08,0,0,1,345,459.78v38.44a23.08,23.08,0,0,1-23.06,23.06H24.06A23.08,23.08,0,0,1,1,498.22V23.56A22.7,22.7,0,0,1,20.06,1.27,23.32,23.32,0,0,1,23.56,1H322.44m0-1H23.56a24.4,24.4,0,0,0-3.65.28A23.56,23.56,0,0,0,0,23.56V498.22a24.06,24.06,0,0,0,24.06,24.06H321.94A24.06,24.06,0,0,0,346,498.22V459.78a24.06,24.06,0,0,0-24.06-24.06H128V86.56H322.44A23.56,23.56,0,0,0,346,63V23.56A23.56,23.56,0,0,0,322.44,0Z"/><rect x="212.72" y="122.28" width="86.56" height="180" rx="16.16" transform="translate(43.72 468.28) rotate(-90)"/><rect x="242" y="274.28" width="104" height="144.88" rx="22.94" fill="#da0037"/><rect x="441.22" y="-44.22" width="86.56" height="175" rx="21.62" transform="translate(441.22 527.78) rotate(-90)" fill="#041562"/><rect x="441.22" y="124.78" width="86.56" height="175" rx="21.62" transform="translate(272.22 696.78) rotate(-90)"/></g></svg>