<svg xmlns="http://www.w3.org/2000/svg" viewBox="0 0 1359 524"><g id="Layer_1" data-name="Layer 1"><path d="M301.65,181.91V299.69a28.86,28.86,0,0,1-28.86,28.85H270l-66.15-66.15V181.91a28.85,28.85,0,0,1,28.85-28.85h40.06a28.31,28.31,0,0,1,2.93.15L301.5,179A28.12,28.12,0,0,1,301.65,181.91Z"/><path d="M412.5,388.61l-41.2,41.2-41.07-41.07h3.69l.72,0q.47,0,.93-.06c.32,0,.64,0,1-.08s.63-.07,1-.12l.71-.1c.29-.05.58-.1.87-.17.6-.11,1.19-.24,1.77-.4.31-.08.62-.17.92-.27s.86-.26,1.29-.41c.26-.09.51-.18.77-.29s.57-.22.86-.34.85-.37,1.27-.58.81-.39,1.2-.6l.21-.12c.34-.19.68-.38,1-.58l.08,0c.36-.22.72-.44,1.07-.68l.07-.05c.35-.24.7-.48,1-.74l.15-.11c.32-.23.63-.48.93-.73s.56-.46.83-.71l.52-.46c.46-.43.91-.87,1.34-1.33.2-.21.4-.42.59-.64s.51-.59.76-.89.56-.69.83-1.05.4-.55.59-.83.22-.32.33-.48.39-.59.57-.9.5-.83.73-1.26a3.68,3.68,0,0,0,.23-.44,6.89,6.89,0,0,0,.34-.66,28,28,0,0,0,1.25-2.93c.11-.3.21-.61.3-.92s.14-.4.19-.6a7.84,7.84,0,0,0,.23-.83c0-.12.07-.24.1-.36.1-.4.2-.81.28-1.22h0c.09-.41.16-.82.22-1.23a5,5,0,0,0,.08-.54c.06-.37.1-.73.14-1.1s.08-.83.09-1.25a3,3,0,0,0,0-.42c0-.43,0-.85,0-1.28V239.78l16.42,16.42v95.69A36.85,36.85,0,0,0,412.5,388.61Z"/><path d="M333.92,388.73h0Z" fill="#ededed"/><path d="M811.06,523.5a23.59,23.59,0,0,1-23.56-23.56V25.28A23.21,23.21,0,0,1,807,2.49a24.14,24.14,0,0,1,3.57-.27h298.88a23.08,23.08,0,0,1,23.06,23.06V64.72a23.08,23.08,0,0,1-23.06,23.06H914.5V437.94h194.44a23.59,23.59,0,0,1,23.56,23.56v38.44a23.59,23.59,0,0,1-23.56,23.56Z" fill="#fff"/><path d="M1109.44,2.72A22.59,22.59,0,0,1,1132,25.28V64.72a22.59,22.59,0,0,1-22.56,22.56H914V438.44h194.94A23.08,23.08,0,0,1,1132,461.5v38.44A23.08,23.08,0,0,1,1108.94,523H811.06A23.08,23.08,0,0,1,788,499.94V25.28A22.7,22.7,0,0,1,807.06,3a23.32,23.32,0,0,1,3.5-.27h298.88m0-1H810.56a24.4,24.4,0,0,0-3.65.28A23.56,23.56,0,0,0,787,25.28V499.94A24.06,24.06,0,0,0,811.06,524h297.88A24.06,24.06,0,0,0,1133,499.94V461.5a24.06,24.06,0,0,0-24.06-24.06H915V88.28h194.44A23.56,23.56,0,0,0,1133,64.72V25.28a23.56,23.56,0,0,0-23.56-23.56Z"/><rect x="999.72" y="124" width="86.56" height="180" rx="16.16" transform="translate(829 1257) rotate(-90)"/><rect x="1029" y="276" width="104" height="144.88" rx="22.94" fill="#da0037"/><rect x="1228.22" y="-42.5" width="86.56" height="175" rx="21.62" transform="translate(1226.5 1316.5) rotate(-90)" fill="#041562"/><rect x="1228.22" y="126.5" width="86.56" height="175" rx="21.62" transform="translate(1057.5 1485.5) rotate(-90)"/><path d="M333.63,388.73h0Z" fill="#ededed"/><line x1="415.77" y1="388.74" x2="415.51" y2="389" fill="#ededed"/><path d="M538.36,189.91v76.24L476,328.51a36.86,36.86,0,0,1-35.41-36.83V189.91a37,37,0,0,1,.84-7.85l28.16-28.16a37,37,0,0,1,7.86-.84H501.5A36.85,36.85,0,0,1,538.36,189.91Z"/><path d="M362.29,128.11V359.89c0,.43,0,.85,0,1.28a3,3,0,0,1,0,.42c0,.42-.05.84-.09,1.25s-.08.73-.14,1.1a5,5,0,0,1-.08.54c-.06.41-.13.82-.22,1.23h0c-.08.41-.18.82-.28,1.22,0,.12-.06.24-.1.36a7.84,7.84,0,0,1-.23.83c0,.2-.12.4-.19.6s-.19.62-.3.92a28,28,0,0,1-1.25,2.93,6.89,6.89,0,0,1-.34.66,3.68,3.68,0,0,1-.23.44c-.23.43-.47.85-.73,1.26s-.37.61-.57.9-.21.32-.33.48-.39.56-.59.83-.54.71-.83,1.05-.5.6-.76.89-.39.43-.59.64c-.43.46-.88.9-1.34,1.33l-.52.46c-.27.25-.55.48-.83.71s-.61.5-.93.73l-.15.11c-.34.26-.69.5-1,.74l-.07.05c-.35.24-.71.46-1.07.68l-.08,0c-.32.2-.66.39-1,.58l-.21.12q-.58.31-1.2.6c-.42.21-.84.4-1.27.58s-.57.24-.86.34-.51.2-.77.29c-.43.15-.86.29-1.29.41s-.61.19-.92.27c-.58.16-1.17.29-1.77.4-.29.07-.58.12-.87.17l-.71.1c-.32.05-.63.09-1,.12l-1,.08q-.46,0-.93.06l-.72,0H290l-60.84-60.43a28.84,28.84,0,0,0,3.62.23h40.06a28.86,28.86,0,0,0,28.86-28.85V181.91a28.12,28.12,0,0,0-.15-2.92,28.85,28.85,0,0,0-25.78-25.78,28.31,28.31,0,0,0-2.93-.15H232.73a28.85,28.85,0,0,0-28.85,28.85V299.69a28.28,28.28,0,0,0,.26,3.82L142,241.79V128.11a28.85,28.85,0,0,1,28.85-28.85H333.43A28.86,28.86,0,0,1,362.29,128.11Z" fill="#041562"/><path d="M413.47,388.65l-1,0,.54,0,.4,0q1.06.06,2.13.06h.2Z" fill="#ededed"/><path d="M599,136.11V242.53l-62.55,60.86a36.62,36.62,0,0,0,1.91-11.71V189.91a36.85,36.85,0,0,0-36.86-36.85H477.45a36.82,36.82,0,0,0-36.86,36.85V291.68A36.86,36.86,0,0,0,476,328.51c.48,0,1,0,1.45,0H501.5a36.76,36.76,0,0,0,10.76-1.6l-63.5,61.8h-33l-2.3-.09-1,0a36.85,36.85,0,0,1-33.79-36.72V136.11a36.85,36.85,0,0,1,36.86-36.85H562.14A36.85,36.85,0,0,1,599,136.11Z" fill="#041562"/><polygon points="601 240.58 601 495.5 397.45 495.5 379.83 478 368.55 466.8 357.03 478 339.05 495.5 141 495.5 141 240.8 142 241.79 204.14 303.51 229.11 328.31 289.95 388.74 303.3 402 342.49 402 371.3 430.81 400.11 402 435.13 402 448.76 388.74 512.26 326.94 536.45 303.39 599 242.53 601 240.58" fill="#da0037"/><path d="M221.77,99.26H170.85A28.85,28.85,0,0,0,142,128.11v72.4l-14-14V522H22.1A22.09,22.09,0,0,1,0,499.9V22.1A22.09,22.09,0,0,1,22.1,0H122.51Z"/><path d="M743,18.26V505.74A17.26,17.26,0,0,1,725.74,523H717.5L615,521.93V189.51l-16,16v-69.4a36.85,36.85,0,0,0-36.86-36.85H524.23L622.49,1H725.74A17.26,17.26,0,0,1,743,18.26Z"/></g></svg>