<svg xmlns="http://www.w3.org/2000/svg" viewBox="0 0 759.98 1030.5"><g id="Layer_1" data-name="Layer 1"><g id="cliffboard"><rect x="475.48" y="262.5" width="14" height="14" fill="none" stroke="red" stroke-linecap="round" stroke-miterlimit="10"/><rect x="173.48" y="160.5" width="392" height="528" rx="20.78" fill="#754c24" stroke="red" stroke-miterlimit="10"/><rect x="197.48" y="199.5" width="342" height="463" rx="10.32" fill="#f2f2f2" stroke="red" stroke-miterlimit="10"/><rect x="218.48" y="279.5" width="76" height="76" rx="11.66" fill="none" stroke="red" stroke-miterlimit="10"/><rect x="218.48" y="397.5" width="76" height="76" rx="11.66" fill="none" stroke="red" stroke-miterlimit="10"/><rect x="218.48" y="521.5" width="76" height="76" rx="11.66" fill="none" stroke="red" stroke-miterlimit="10"/><path d="M238.71,311.24c1,.49,2,1,3,1.56l2.93,1.68c2,1.1,3.8,2.33,5.71,3.5s3.72,2.43,5.54,3.7,3.6,2.56,5.39,3.85l-6.81.14A289,289,0,0,1,283,296.13c5.08-4.59,10.33-9,15.81-13.17q4.11-3.15,8.43-6l2.16-1.47,2.22-1.4c1.47-1,3-1.83,4.55-2.69l.08,0a.34.34,0,0,1,.47.13.36.36,0,0,1-.06.41c-4.81,4.85-9.6,9.74-14.46,14.54l-14.54,14.47c-4.85,4.82-9.67,9.66-14.58,14.42l-14.66,14.33-.4.39-.4-.37-9.71-8.9-9.64-9a.36.36,0,0,1,0-.49.34.34,0,0,1,.39-.07Z" fill="red"/><path d="M231.78,440.31a28,28,0,0,1,6,3.53,41.74,41.74,0,0,1,4.84,4.29,46.8,46.8,0,0,1,4,4.82c.61.83,1.16,1.71,1.73,2.57s1.09,1.76,1.56,2.68l-7.45-2.47a45.15,45.15,0,0,1,4.51-1.16,41.86,41.86,0,0,1,4.7-.68,36.26,36.26,0,0,1,4.91-.11,25.59,25.59,0,0,1,2.57.24,18.9,18.9,0,0,1,2.67.5l.21.05a.33.33,0,0,1,.23.39.32.32,0,0,1-.18.21l-4.27,1.8c-1.42.61-2.86,1.15-4.29,1.73l-8.6,3.42-.5.2-.3-.47c-1.14-1.73-2.24-3.47-3.31-5.24l-3.25-5.29L234.34,446l-3.16-5.34a.32.32,0,0,1,.12-.44.34.34,0,0,1,.28,0Z" fill="red"/><rect x="340.48" y="285.5" width="164.5" height="8" fill="#ccc" stroke="#b3b3b3" stroke-miterlimit="10"/><rect x="340.48" y="309.5" width="164.5" height="8" fill="#ccc" stroke="#b3b3b3" stroke-miterlimit="10"/><rect x="340.48" y="333.5" width="164.5" height="10" fill="#ccc" stroke="#b3b3b3" stroke-miterlimit="10"/><rect x="340.48" y="406.5" width="164.5" height="8" fill="#ccc" stroke="#b3b3b3" stroke-miterlimit="10"/><rect x="340.48" y="430.5" width="164.5" height="8" fill="#ccc" stroke="#b3b3b3" stroke-miterlimit="10"/><rect x="340.48" y="454.5" width="84" height="10" fill="#ccc" stroke="#b3b3b3" stroke-miterlimit="10"/><rect x="424.48" y="521.5" width="84" height="10" fill="#ccc" stroke="#b3b3b3" stroke-miterlimit="10"/><rect x="424.48" y="549.5" width="84" height="7" fill="#ccc" stroke="#b3b3b3" stroke-miterlimit="10"/><rect x="326.48" y="89.5" width="93" height="114" rx="46.5" fill="#bdccd4"/><rect x="261.48" y="146.5" width="220" height="68" rx="8.06" fill="#bdccd4"/><circle cx="372.48" cy="124.5" r="17" fill="#e6e6ff"/></g><g id="watch"><circle cx="639.48" cy="307.5" r="92" fill="#e6e6ff"/><path d="M733,307.5A93.13,93.13,0,1,1,553.87,272,92.3,92.3,0,0,1,731.48,307.5Zm-1.5,0a91.68,91.68,0,1,0-156.39,64.39A90.73,90.73,0,0,0,730,307.5Z" fill="#22b573"/><circle cx="640.48" cy="307.5" r="67" fill="#22807c" stroke="red" stroke-linecap="round" stroke-miterlimit="10"/><circle cx="639.48" cy="307.5" r="5" fill="red" stroke="red" stroke-linecap="round" stroke-miterlimit="10"/><line x1="637.62" y1="308.5" x2="619.92" y2="330.5" fill="none" stroke="red" stroke-linecap="round" stroke-miterlimit="10" stroke-width="3"/><path d="M622.05,327.85l7.9,1,0,.27-10.39,5.89-9.27,7.44q2.64-5.33,5.29-10.64l3.52-11.42.24-.11Z" fill="red"/><line x1="639.48" y1="305.16" x2="639.48" y2="276.35" fill="none" stroke="red" stroke-linecap="round" stroke-miterlimit="10"/><path d="M639.48,278.15l-3.6,2.19-.08-.12,2.33-5.88,1.35-6.14,1.35,6.14,2.33,5.88-.06.12Z" fill="red"/><path d="M639.1,253.51c0-4.41.07-8.15.12-11" fill="none" stroke="red" stroke-linecap="round" stroke-miterlimit="10" stroke-width="3"/><path d="M639.36,361.5c0,4.42.06,8.16.08,11" fill="none" stroke="red" stroke-linecap="round" stroke-miterlimit="10" stroke-width="3"/><path d="M639.12,312.48c0-1.12,0-2.24,0-3.36v-.62c0-.11,0-.22,0-.33v-1.62h0v0h0c0-1.33,0-2.66,0-4" fill="none" stroke="red" stroke-linecap="round" stroke-miterlimit="10" stroke-width="3"/><polyline points="634.58 308.5 637.62 308.5 638.28 308.5 638.48 308.5 639.11 308.5 639.36 308.5 639.92 308.5 641 308.5 642.32 308.5 644.38 308.5" fill="none" stroke="red" stroke-linecap="round" stroke-miterlimit="10" stroke-width="3"/><line x1="704.47" y1="308.5" x2="693.47" y2="308.5" fill="none" stroke="red" stroke-linecap="round" stroke-miterlimit="10" stroke-width="3"/><line x1="585.49" y1="308.5" x2="574.49" y2="308.5" fill="none" stroke="red" stroke-linecap="round" stroke-miterlimit="10" stroke-width="3"/><polyline points="634.08 312.9 635.94 311.04 638.48 308.5 638.61 308.37 639.1 307.88 639.5 307.48 639.56 307.42 639.76 307.22 639.99 306.99 643.02 303.96" fill="none" stroke="red" stroke-linecap="round" stroke-miterlimit="10" stroke-width="3"/><line x1="685.44" y1="261.54" x2="677.66" y2="269.32" fill="none" stroke="red" stroke-linecap="round" stroke-miterlimit="10" stroke-width="3"/><line x1="601.3" y1="345.68" x2="593.52" y2="353.46" fill="none" stroke="red" stroke-linecap="round" stroke-miterlimit="10" stroke-width="3"/><polyline points="636.29 303.65 639.1 306.54 639.1 306.55 639.13 306.57 639.14 306.59 639.76 307.22 639.85 307.32 640.18 307.66 640.24 307.72 641 308.5 643.23 310.8" fill="none" stroke="red" stroke-linecap="round" stroke-miterlimit="10" stroke-width="3"/><line x1="685.06" y1="353.83" x2="677.39" y2="345.94" fill="none" stroke="red" stroke-linecap="round" stroke-miterlimit="10" stroke-width="3"/><line x1="602.13" y1="268.51" x2="594.46" y2="260.62" fill="none" stroke="red" stroke-linecap="round" stroke-miterlimit="10" stroke-width="3"/><polyline points="641.65 303 639.99 306.99 639.85 307.32 639.78 307.5 639.64 307.83 639.58 307.98 639.36 308.5 639.11 309.12 637.82 312.22" fill="none" stroke="red" stroke-linecap="round" stroke-miterlimit="10" stroke-width="3"/><line x1="619.02" y1="357.49" x2="614.81" y2="367.65" fill="none" stroke="red" stroke-linecap="round" stroke-miterlimit="10" stroke-width="3"/><line x1="664.67" y1="247.56" x2="660.45" y2="257.72" fill="none" stroke="red" stroke-linecap="round" stroke-miterlimit="10" stroke-width="3"/><polyline points="637.6 302.86 639.1 306.5 639.1 306.51 639.13 306.57 639.14 306.59 639.46 307.37 639.5 307.48 639.64 307.83 639.69 307.94 639.92 308.5 641.41 312.12" fill="none" stroke="red" stroke-linecap="round" stroke-miterlimit="10" stroke-width="3"/><line x1="664.24" y1="367.61" x2="660.05" y2="357.44" fill="none" stroke="red" stroke-linecap="round" stroke-miterlimit="10" stroke-width="3"/><line x1="618.95" y1="257.54" x2="614.77" y2="247.37" fill="none" stroke="red" stroke-linecap="round" stroke-miterlimit="10" stroke-width="3"/><line x1="589.49" y1="327.97" x2="579.28" y2="332.04" fill="none" stroke="red" stroke-linecap="round" stroke-miterlimit="10" stroke-width="3"/><line x1="700.04" y1="283.86" x2="689.83" y2="287.93" fill="none" stroke="red" stroke-linecap="round" stroke-miterlimit="10" stroke-width="3"/><polyline points="644.28 306.11 640.29 307.7 640.24 307.72 639.69 307.94 639.58 307.98 639.1 308.17 638.61 308.37 638.28 308.5 637.31 308.89 637.3 308.89 635.04 309.8" fill="none" stroke="red" stroke-linecap="round" stroke-miterlimit="10" stroke-width="3"/><polyline points="634.86 305.57 639.1 307.23 639.46 307.37 639.56 307.42 639.78 307.5 640.18 307.66 640.29 307.7 642.32 308.5 644.17 309.23" fill="none" stroke="red" stroke-linecap="round" stroke-miterlimit="10" stroke-width="3"/><line x1="700.03" y1="331.18" x2="689.79" y2="327.16" fill="none" stroke="red" stroke-linecap="round" stroke-miterlimit="10" stroke-width="3"/><line x1="589.25" y1="287.64" x2="579.01" y2="283.62" fill="none" stroke="red" stroke-linecap="round" stroke-miterlimit="10" stroke-width="3"/></g><g id="hand"><path d="M447.48,696.88V855.82l-60-1.32-2-2.44c-21.48-26.27-29.06-49.23-32-65.56-4-22.64.63-34.16-9-59-5.66-14.62-10.66-19.37-15-37-2.33-9.48-2.62-15.15-7-32-3.36-12.93-5.42-18.14-7.5-22.5a62.09,62.09,0,0,0-3.72-6.77c-2.16-3.38-4.55-6.39-8.35-11.87L302,616c-6.89-10.08-12.12-17.74-15.27-24a41.19,41.19,0,0,1-1.73-3.81c-1.85-4.65-2.25-8.53-1-12.19,2.1-6.13,8.46-10.48,14-12,15-4.13,32,10.3,52.67,32.62,3.19,3.45,6.46,7.09,9.83,10.88.71.8,1.4,1.61,2.06,2.44,15.73,19.3,21.16,45.28,30.94,57.56,24.44,30.66,39,32.72,48.4,31.28.55-.08,1.08-.18,1.6-.28l.12,0A12.21,12.21,0,0,0,447.48,696.88Z" fill="#edb98d"/><path d="M581.48,698.5a35.14,35.14,0,0,1-4.6,13.39,43.68,43.68,0,0,1-5.51,7.26,104.39,104.39,0,0,1-9,8.49c-5.36-5.28-11.47-11.73-17.86-18.73-27.83-30.48-61-71.41-61-71.41l-19.22-20.37a72,72,0,0,0-8.78-21.63,44.06,44.06,0,0,0-9-10.58c-8.39-7.26-20.64-13.68-48-40.42-25.45-24.88-33.9-37.95-31-50,.16-.66,3-11.92,12-15,15.57-5.36,29.12,21,67,46.66l2,1.34c29.89,19.76,33.49,11.62,53,28,15.5,13,16.48,20.88,43,67.73,1,1.7,2,3.46,3,5.27C576.64,679.52,583.42,684.39,581.48,698.5Z" fill="#edb979"/><polygon points="446.48 598.29 446.48 702.78 442.6 698.47 300.48 540.5 282.46 495.7 289.92 487.21 303.03 472.28 349.48 495.5 446.48 598.29"/><line x1="275.02" y1="461.11" x2="268.72" y2="455.12" fill="none"/><line x1="271.28" y1="465.18" x2="269.3" y2="463.01" fill="none"/><path d="M544.48,690c-9.79-9.68-18.74-17.95-22.82-21.87-11.82-11.35-7.18-16.65-7.18-16.65s13,10.57,30,26.76c10,9.59,21.47,21.14,32.4,33.63a43.68,43.68,0,0,1-5.51,7.26C564,709.86,553.84,699.29,544.48,690Z"/><path d="M544.48,744v67.67l-22.67-25.2a97.56,97.56,0,0,1,11.67-28c1.22-2,2.46-3.82,3.73-5.58A97.34,97.34,0,0,1,544.48,744Z" fill="#1a1a1a"/><path d="M620.25,812.09A33.9,33.9,0,0,1,609,830l-21.2-22.78-43.29-46.51V744c6.07-6.56,12.28-11.6,17.86-16.4,10.6,10.44,18.29,16.29,19.45,12.76,1.39-4.25-3.19-12.14-10.42-21.25a43.68,43.68,0,0,0,5.51-7.26c22,25.19,42,54.19,44.6,78.61C622.38,799.09,621.83,806.2,620.25,812.09Z"/><path d="M609,830a41,41,0,0,1-15.27,7.65h0a66.87,66.87,0,0,1-24.21,1.83l-25-27.79v-51l43.29,46.51Z" fill="#1a1a1a"/><path d="M619.49,841.33,609,830a33.9,33.9,0,0,0,11.28-17.93L634,825.72C635.27,831,627.42,836.86,619.49,841.33Z" fill="#42210b"/><path d="M619.49,841.33a135.74,135.74,0,0,1-15,7.17L593.7,837.67A41,41,0,0,0,609,830Z" fill="#42210b"/><line x1="270.51" y1="466.01" x2="270.35" y2="466.18" fill="none"/><path d="M446.48,855.82V888.5H369.19c4.31-16.27,10-28.12,15.26-36.44l2,2.44Z" fill="#fff"/><path d="M446.48,847v8.87l76,1.68" fill="none"/><path d="M520.83,848.5q.72,4.39,1.65,9h16" fill="none"/><path d="M344.54,888.5l-.06,120h102v-120Zm22.94,88a10,10,0,1,1,10-10A10,10,0,0,1,367.48,976.5Zm0-28a10,10,0,1,1,10-10A10,10,0,0,1,367.48,948.5Zm0-28a10,10,0,1,1,10-10A10,10,0,0,1,367.48,920.5Z" fill="gray"/><circle cx="367.48" cy="910.5" r="10" fill="#fff"/><circle cx="367.48" cy="938.5" r="10" fill="#fff"/><path d="M282,464.13,275.79,470l-3.28-3.13,0,0L261.22,456s-5-5.65,5-5l5.36,4.45Z" fill="#ed1c24"/><circle cx="367.48" cy="966.5" r="10" fill="#fff"/><polygon points="544.48 893.5 544.48 1008.5 446.48 1008.5 446.48 888.5 538.48 888.5 538.48 893.5 544.48 893.5" fill="#4d4d4d"/><polygon points="303.03 472.28 289.92 487.21 282.46 495.7 270.76 466.63 270.51 466.01 271.28 465.18 275.02 461.11 276.8 459.16 303.03 472.28" fill="#1a1a1a"/><rect x="538.48" y="888.5" width="6" height="5" fill="none"/><rect x="446.48" y="1008.5" width="98" height="22" fill="none"/><path d="M544.48,708.91V744a97.34,97.34,0,0,0-7.27,8.88L461.92,672l-15.44-16.59V598.29l17.78,18.84,19.22,20.37S516.65,678.43,544.48,708.91Z"/><path d="M522.48,857.5l-76-1.68v-153l75.33,83.73c-.19.75-.37,1.51-.54,2.29-3.5,15.44-4.49,35-.44,59.7Q521.55,852.9,522.48,857.5Z" fill="#edb979"/><path d="M522.48,857.5l-76-1.68" fill="none"/><path d="M562.34,727.64c-5.58,4.8-11.79,9.84-17.86,16.4V708.91C550.87,715.91,557,722.36,562.34,727.64Z"/><polygon points="544.48 863.5 544.48 888.5 446.48 888.5 446.48 857.5 538.48 857.5 538.48 863.5 544.48 863.5" fill="#e8e8e8"/><rect x="538.48" y="857.5" width="6" height="6" fill="none"/><rect x="538.48" y="888.5" width="6" height="5" fill="none"/><path d="M477.48,550.5l11,7s53.16,98.3,65.58,110.65,15.42,25.35,15.42,25.35Z" fill="#edb98d"/><path d="M537.21,752.92c-1.27,1.76-2.51,3.61-3.73,5.58a97.56,97.56,0,0,0-11.67,28l-75.33-83.73V655.43L461.92,672Z" fill="#1a1a1a"/><path d="M359.48,607.5c.71.8,1.4,1.61,2.06,2.44l-11.89-13.32C352.84,600.07,356.11,603.71,359.48,607.5Z" fill="none"/><path d="M544.48,760.73l-7.27-7.81c-1.27,1.76-2.51,3.61-3.73,5.58a97.56,97.56,0,0,0-11.67,28" fill="none"/><path d="M446.48,655.43v49.62l-5.6-6.27c.55-.08,1.08-.18,1.6-.28l.12,0-142.12-158-18-44.8,7.46-8.49Z" fill="#1a1a1a"/><path d="M283.38,588.36c10.81-3.15,23.39-3.48,30.75,7.62,8.71,13.15,2.4,25.67-4.3,33.77Z" fill="#c7b299"/><path d="M410.16,497.42c-7.94-9.86-18-19.9-25.75-19.22-4.39.39-8,2.79-10.83,6Z" fill="#c7b299"/></g><g id="idea-light"><path d="M716.48,54.5h20v14h-20v64H738v-38a52,52,0,1,0-61-.73V132.5h27.5v-64h-20v-14h20" fill="#ff0" opacity="0.47"/><polyline points="716.48 54.5 736.48 54.5 736.48 68.5 716.48 68.5 716.48 74 716.48 103.31" fill="none" stroke="#000" stroke-miterlimit="10"/><polyline points="704.48 103.88 704.48 74 704.48 68.5 684.48 68.5 684.48 54.5 704.48 54.5" fill="none" stroke="#000" stroke-miterlimit="10"/><polyline points="704.48 74 704.48 103.88 704.48 132.5 716.48 132.5 716.48 103.31 716.48 74" fill="none" stroke="#000" stroke-miterlimit="10"/><polyline points="704.48 68.5 684.48 68.5 684.48 54.5 704.48 54.5" fill="#ff0" stroke="#000" stroke-miterlimit="10" opacity="0.21"/><polyline points="716.48 68.5 736.48 68.5 736.48 54.5 716.48 54.5" fill="#ff0" stroke="#fff" stroke-miterlimit="10" opacity="0.21"/><polyline points="704.48 54.5 704.48 68.5 704.48 74 704.48 103.88 704.48 132.5 716.48 132.5 716.48 103.31 716.48 74 716.48 68.5 716.48 54.5" fill="#ff0" stroke="#fff" stroke-miterlimit="10" opacity="0.21"/><rect x="676.98" y="132.5" width="61" height="24.5" fill="none" stroke="#000" stroke-miterlimit="10"/><polyline points="737.98 132.5 737.98 157 731.98 157 731.98 164 723.98 164 694.98 164 685.98 164 685.98 157 676.98 157 676.98 132.5" fill="#22807c" stroke="red" stroke-linecap="round" stroke-miterlimit="10"/></g><rect x="33.48" y="650.5" width="278" height="184" transform="translate(-527.41 440.49) rotate(-53.58)" fill="#22807c"/><rect x="58.14" y="680.64" width="243" height="138" transform="translate(-530.25 449.15) rotate(-53.58)" fill="#e6e6ff"/><rect x="123.34" y="788.18" width="27" height="76" transform="translate(-609.23 445.81) rotate(-53.58)" fill="#0051ff"/><rect x="165.53" y="780.65" width="27" height="39" transform="translate(-571.14 469.18) rotate(-53.58)" fill="#0051ff"/><rect x="184.8" y="727.7" width="27" height="59" transform="translate(-528.75 467.23) rotate(-53.58)" fill="#0051ff"/><rect x="197.22" y="661.2" width="27" height="96" transform="translate(-485.07 457.73) rotate(-53.58)" fill="#0051ff"/><rect x="253.54" y="689.55" width="27" height="18" transform="translate(-453.62 498.72) rotate(-53.58)" fill="#0051ff"/><polygon points="39.88 781.12 46.09 783.18 49.96 777.93 49.92 784.46 56.12 786.53 49.89 788.5 49.84 795.03 46.04 789.72 39.81 791.69 43.69 786.43 39.88 781.12" fill="#e6e6ff" stroke="#ff0" stroke-miterlimit="10"/><polygon points="53.18 770.21 57.72 771.72 60.56 767.87 60.52 772.65 65.06 774.16 60.5 775.61 60.47 780.39 57.68 776.5 53.12 777.95 55.96 774.1 53.18 770.21" fill="#e6e6ff" stroke="#ff0" stroke-miterlimit="10"/><polygon points="63.54 760.58 67.1 761.77 69.33 758.75 69.3 762.5 72.86 763.68 69.28 764.82 69.25 768.57 67.07 765.52 63.5 766.65 65.72 763.63 63.54 760.58" fill="#e6e6ff" stroke="#ff0" stroke-miterlimit="10"/><line x1="59.15" y1="149.62" x2="58.52" y2="129.43" fill="none"/><line x1="55.92" y1="46.71" x2="55.35" y2="28.56" fill="none"/><line x1="57.24" y1="88.79" x2="57.23" y2="88.44" fill="none"/><line x1="57.79" y1="106.13" x2="57.77" y2="105.65" fill="none"/><line x1="56.71" y1="71.92" x2="56.68" y2="70.76" fill="none"/><path d="M55.92,46.71A41.45,41.45,0,0,0,44.06,48.6l-.62-19.67,11.91-.37,11.91-.38.63,20.12a41.33,41.33,0,0,0-11.41-1.6Z"/><polygon points="56.71 71.92 53.02 75.86 45.21 76.06 44.92 76.06 44.91 75.75 44.91 75.75 44.35 58.06 56.68 70.76 57.25 71.35 56.71 71.92"/><polygon points="68.74 75.47 61.42 75.65 57.25 71.35 68.25 59.61 68.74 75.47"/><polygon points="46.88 99.84 51.57 99.73 57.55 105.89 46.24 117.97 45.71 101.1 45.67 99.88 46.88 99.84"/><polygon points="65.71 97.18 63.6 99.43 57.58 99.58 57.24 88.79 49.24 97.32 45.47 93.44 45.3 87.97 56.49 87.69 49.1 80.06 53.02 75.86 56.83 75.77 57.2 87.67 56.5 87.69 57.23 88.44 57.4 88.62 65.71 97.18"/><polygon points="69.12 87.38 58.31 87.65 65.55 79.91 68.99 83.46 69.12 87.38"/><polygon points="70.1 118.83 57.79 106.13 57.55 105.89 57.77 105.65 63.6 99.43 67.78 99.33 67.79 99.33 69.5 99.29 69.55 101.15 70.1 118.83"/><path d="M71.06,149.25l-11.91.37-11.9.38-.69-21.72a41.14,41.14,0,0,0,9.92,1.2c.69,0,1.36,0,2,0a41.15,41.15,0,0,0,11.85-2.34Z"/><line x1="97.24" y1="130.32" x2="85.51" y2="118.22" fill="none"/><line x1="27.87" y1="58.81" x2="16.13" y2="46.7" fill="none"/><line x1="56.5" y1="88.32" x2="56.5" y2="88.32" fill="none"/><line x1="69.55" y1="101.78" x2="67.79" y2="99.96" fill="none"/><line x1="45.21" y1="76.69" x2="44.91" y2="76.38" fill="none"/><path d="M37.7,51.83A41.43,41.43,0,0,0,20.48,68.3L7.58,55l8.55-8.3,8.55-8.29Z"/><polygon points="45.21 76.69 44.92 76.69 44.91 76.38 44.91 76.37 44.35 58.69 56.68 71.39 57.25 71.98 56.71 72.55 53.02 76.49 45.21 76.69"/><polygon points="44.92 76.69 45.18 84.86 41.59 88.69 40.94 89.39 40.28 88.72 29 77.09 44.92 76.69"/><polygon points="65.71 97.81 63.6 100.06 57.58 100.21 57.24 89.42 49.24 97.95 45.47 94.06 45.3 88.6 56.49 88.32 49.1 80.69 53.02 76.49 56.83 76.4 57.2 88.3 56.5 88.32 57.23 89.07 57.4 89.25 65.71 97.81"/><polygon points="83.99 99.55 69.5 99.91 69.31 93.97 69.12 88 58.31 88.28 65.55 80.54 68.99 84.09 72.71 87.92 73.86 89.1 83.99 99.55"/><polygon points="69.55 101.78 70.1 119.45 57.79 106.76 57.55 106.52 57.77 106.28 63.6 100.06 67.78 99.96 67.79 99.96 69.5 99.91 69.55 101.78"/><path d="M105.8,122l-8.56,8.29-8.55,8.3L75.8,125.33a41.62,41.62,0,0,0,17-16.72Z"/><line x1="57.4" y1="89.25" x2="57.24" y2="89.42" fill="none"/><line x1="46.88" y1="100.47" x2="45.71" y2="101.73" fill="none"/><line x1="69.73" y1="76.07" x2="68.77" y2="77.1" fill="none"/><line x1="28.95" y1="119.62" x2="18.93" y2="130.32" fill="none"/><line x1="97.24" y1="46.7" x2="85.52" y2="59.23" fill="none"/><path d="M29,119.62a41.35,41.35,0,0,0,10.1,6.64L27.62,138.47l-8.69-8.15-8.7-8.14,11-11.76A41.08,41.08,0,0,0,29,119.62Z"/><polygon points="68.74 76.1 61.42 76.28 57.25 71.98 68.25 60.24 68.74 76.1"/><polygon points="46.88 100.47 51.57 100.36 57.55 106.52 46.24 118.59 45.71 101.73 45.67 100.5 46.88 100.47"/><polygon points="40.94 89.39 45.47 94.06 45.67 100.5 30.17 100.89 40.94 89.39"/><polygon points="65.71 97.81 63.6 100.06 57.58 100.21 57.24 89.42 49.24 97.95 45.47 94.06 45.3 88.6 56.49 88.32 49.1 80.69 53.02 76.49 56.83 76.4 57.2 88.3 56.5 88.32 57.23 89.07 57.4 89.25 65.71 97.81"/><polygon points="86.45 75.66 75.03 87.86 73.86 89.1 69.31 93.97 69.12 88 58.31 88.28 65.55 80.54 68.99 84.09 68.77 77.1 68.74 76.1 69.73 76.07 69.74 76.07 86.45 75.66"/><path d="M105.94,54.85l-13.14,14a41.16,41.16,0,0,0-7.28-9.64,41.62,41.62,0,0,0-9.69-7.1L88.55,38.56Z"/><line x1="116.04" y1="86.84" x2="97.85" y2="87.29" fill="none"/><line x1="15.1" y1="89.35" x2="0.29" y2="89.72" fill="none"/><line x1="56.5" y1="88.32" x2="56.5" y2="88.32" fill="none"/><polyline points="75.03 87.86 72.71 87.92 69.12 88" fill="none"/><line x1="41.6" y1="88.69" x2="40.28" y2="88.72" fill="none"/><path d="M15.1,89.35A41.19,41.19,0,0,0,17,101.22l-16.43.41L.29,89.72,0,77.81l16.66-.42a41.5,41.5,0,0,0-1.57,11.33C15.09,88.93,15.09,89.14,15.1,89.35Z"/><polygon points="61.42 76.28 56.83 76.4 53.02 76.49 56.71 72.55 57.25 71.98 61.42 76.28" fill="#fff"/><polygon points="41.59 88.69 40.94 89.39 40.28 88.72 29 77.09 44.92 76.69 45.18 84.86 41.59 88.69"/><polygon points="40.94 89.39 45.47 94.06 45.67 100.5 30.17 100.89 40.94 89.39"/><polygon points="65.71 97.81 63.6 100.06 57.58 100.21 57.24 89.42 49.24 97.95 45.47 94.06 45.3 88.6 56.49 88.32 49.1 80.69 53.02 76.49 56.83 76.4 57.2 88.3 56.5 88.32 57.23 89.07 57.4 89.25 65.71 97.81"/><polygon points="73.86 89.1 83.99 99.55 69.5 99.91 69.31 93.97 69.12 88 58.31 88.28 65.55 80.54 68.99 84.09 68.77 77.1 68.74 76.1 69.73 76.07 69.74 76.07 86.45 75.66 75.03 87.86 73.86 89.1"/><path d="M96.52,99.24a41.44,41.44,0,0,0,1.35-10.52c0-.48,0-1,0-1.43a41.15,41.15,0,0,0-2.16-11.86l20.06-.5L116,86.84l.3,11.91Z"/><path d="M96.52,99.24a41.1,41.1,0,0,1-3.73,9.37L84,99.55Z" stroke="#000" stroke-miterlimit="10"/><path d="M95.69,75.43l-9.24.23,6.35-6.79A40.06,40.06,0,0,1,95.69,75.43Z" stroke="#000" stroke-miterlimit="10"/><path d="M92.8,68.87l-6.35,6.79-16.71.41h0l-1,0-.49-15.86,7.58-8.11a41.62,41.62,0,0,1,9.69,7.1A41.16,41.16,0,0,1,92.8,68.87Z" fill="none" stroke="#000" stroke-miterlimit="10"/><path d="M97.87,88.72a41.44,41.44,0,0,1-1.35,10.52L84,99.55,73.86,89.1,75,87.86l11.42-12.2,9.24-.23a41.15,41.15,0,0,1,2.16,11.86C97.86,87.77,97.87,88.24,97.87,88.72Z" fill="none" stroke="#000" stroke-miterlimit="10"/><path d="M92.79,108.61a41.62,41.62,0,0,1-17,16.72l-5.69-5.87h0l-.55-17.67,0-1.87L84,99.55Z" fill="none" stroke="#000" stroke-miterlimit="10"/><path d="M70.37,127.71a40.83,40.83,0,0,1-11.85,2.35c-.68,0-1.35.05-2,.05a41.14,41.14,0,0,1-9.92-1.21l-.32-10.31,11.31-12.07.24.24L70.1,119.45h0Z" fill="none" stroke="#000" stroke-miterlimit="10"/><path d="M46.24,118.59l-7.19,7.67a41.44,41.44,0,0,1-17.81-15.84l8.93-9.53,15.5-.39,0,1.23Z" fill="none" stroke="#000" stroke-miterlimit="10"/><path d="M46.56,128.9a39.57,39.57,0,0,1-7.51-2.64l7.19-7.67Z" stroke="#000" stroke-miterlimit="10"/><path d="M40.94,89.39l-10.77,11.5L17,101.22A41.19,41.19,0,0,1,15.1,89.35c0-.21,0-.42,0-.63a41.5,41.5,0,0,1,1.57-11.33L29,77.09,40.28,88.72Z" fill="none" stroke="#000" stroke-miterlimit="10"/><path d="M30.17,100.89l-8.93,9.53a41.08,41.08,0,0,1-4.22-9.2Z" stroke="#000" stroke-miterlimit="10"/><path d="M44.92,76.69,29,77.09,20.48,68.3A41.43,41.43,0,0,1,37.7,51.83l6.65,6.86.56,17.68h0Z" fill="none" stroke="#000" stroke-miterlimit="10"/><path d="M29,77.09l-12.34.3a41.24,41.24,0,0,1,3.82-9.09Z" stroke="#000" stroke-miterlimit="10"/><path d="M68.25,60.24,57.25,72l-.57-.59L44.35,58.69l-.29-9.46a41.11,41.11,0,0,1,11.86-1.89h.56a41.71,41.71,0,0,1,11.41,1.59Z" fill="none" stroke="#000" stroke-miterlimit="10"/><path d="M44.35,58.69,37.7,51.83a40.21,40.21,0,0,1,6.36-2.6Z" stroke="#000" stroke-miterlimit="10"/><path d="M75.83,52.13l-7.58,8.11-.36-11.32A41.11,41.11,0,0,1,75.83,52.13Z" stroke="#000" stroke-miterlimit="10"/><polygon points="68.99 84.09 65.55 80.54 61.42 76.28 68.74 76.1 68.77 77.1 68.99 84.09" fill="#fff" stroke="#000" stroke-miterlimit="10"/><polygon points="53.02 76.49 49.1 80.69 45.18 84.86 44.92 76.69 45.21 76.69 53.02 76.49" fill="#fff" stroke="#000" stroke-miterlimit="10"/><polygon points="45.21 76.69 44.92 76.69 44.91 76.38 44.91 76.37 44.35 58.69 56.68 71.39 57.25 71.98 56.71 72.55 53.02 76.49 45.21 76.69" fill="none" stroke="#000" stroke-miterlimit="10"/><polygon points="68.74 76.1 61.42 76.28 57.25 71.98 68.25 60.24 68.74 76.1" fill="none" stroke="#000" stroke-miterlimit="10"/><polygon points="69.5 99.91 67.79 99.96 67.78 99.96 63.6 100.06 65.71 97.81 69.31 93.97 69.5 99.91" fill="#fff" stroke="#000" stroke-miterlimit="10"/><polygon points="63.6 100.06 57.77 106.28 57.55 106.52 51.57 100.36 57.58 100.21 63.6 100.06" fill="#fff" stroke="#000" stroke-miterlimit="10"/><polygon points="67.79 99.96 69.5 99.91 69.55 101.78 70.1 119.45 57.79 106.76 57.55 106.52 57.77 106.28 63.6 100.06 67.78 99.96 67.79 99.96" fill="none" stroke="#000" stroke-miterlimit="10"/><polygon points="51.57 100.36 46.88 100.47 45.67 100.5 45.47 94.06 49.24 97.95 51.57 100.36" fill="#fff" stroke="#000" stroke-miterlimit="10"/><polygon points="46.88 100.47 51.57 100.36 57.55 106.52 46.24 118.59 45.71 101.73 45.67 100.5 46.88 100.47" fill="none" stroke="#000" stroke-miterlimit="10"/><polygon points="45.47 94.06 40.94 89.39 41.59 88.69 45.18 84.86 45.3 88.6 45.47 94.06" fill="#fff" stroke="#000" stroke-miterlimit="10"/><polygon points="41.59 88.69 40.94 89.39 40.28 88.72 29 77.09 44.92 76.69 45.18 84.86 41.59 88.69" fill="none" stroke="#000" stroke-miterlimit="10"/><polygon points="40.94 89.39 45.47 94.06 45.67 100.5 30.17 100.89 40.94 89.39" fill="none" stroke="#000" stroke-miterlimit="10"/><polygon points="57.58 100.21 51.57 100.36 49.24 97.95 57.24 89.42 57.58 100.21" fill="#fff" stroke="#000" stroke-miterlimit="10"/><polygon points="65.55 80.54 58.31 88.28 57.2 88.3 56.83 76.4 61.42 76.28 65.55 80.54" fill="#fff" stroke="#000" stroke-miterlimit="10"/><polygon points="69.31 93.97 65.71 97.81 57.4 89.25 58.31 88.28 69.12 88 69.31 93.97" fill="#fff" stroke="#000" stroke-miterlimit="10"/><polygon points="56.49 88.32 45.3 88.6 45.18 84.86 49.1 80.69 56.49 88.32" fill="#fff" stroke="#000" stroke-miterlimit="10"/><polygon points="58.31 88.28 57.4 89.25 57.23 89.07 57.2 88.3 58.31 88.28" fill="#fff" stroke="#000" stroke-miterlimit="10"/><polygon points="57.23 89.07 56.5 88.32 57.2 88.3 57.23 89.07" fill="#fff" stroke="#000" stroke-miterlimit="10"/><polygon points="65.71 97.81 63.6 100.06 57.58 100.21 57.24 89.42 49.24 97.95 45.47 94.06 45.3 88.6 56.49 88.32 49.1 80.69 53.02 76.49 56.83 76.4 57.2 88.3 56.5 88.32 57.23 89.07 57.4 89.25 65.71 97.81" fill="none" stroke="#000" stroke-miterlimit="10"/><polygon points="73.86 89.1 83.99 99.55 69.5 99.91 69.31 93.97 69.12 88 58.31 88.28 65.55 80.54 68.99 84.09 68.77 77.1 68.74 76.1 69.73 76.07 69.74 76.07 86.45 75.66 75.03 87.86 73.86 89.1" fill="none" stroke="#000" stroke-miterlimit="10"/><path d="M75.8,125.33a40.41,40.41,0,0,1-5.43,2.38l-.26-8.25Z" stroke="#000" stroke-miterlimit="10"/><circle cx="58.05" cy="88.41" r="31.35" fill="none" stroke="#000" stroke-miterlimit="10"/></g></svg>